<mxfile host="app.diagrams.net" modified="2020-07-12T14:24:02.095Z" agent="5.0 (Windows NT 10.0; Win64; x64) AppleWebKit/537.36 (KHTML, like Gecko) Chrome/83.0.4103.61 Safari/537.36" etag="TZe8UgGVypfGiVqxEzzy" version="13.4.2" type="github">
  <diagram id="fXw8jaWQ0ao_zyZHoVfB" name="第 1 页">
    <mxGraphModel dx="1287" dy="762" grid="1" gridSize="10" guides="1" tooltips="1" connect="1" arrows="1" fold="1" page="1" pageScale="1" pageWidth="827" pageHeight="1169" math="0" shadow="0">
      <root>
        <mxCell id="0" />
        <mxCell id="1" parent="0" />
        <mxCell id="MxtHqCWYifeLRSX94nUC-1" value="少儿编程班" style="rounded=1;whiteSpace=wrap;html=1;" vertex="1" parent="1">
          <mxGeometry x="-10" y="380" width="120" height="60" as="geometry" />
        </mxCell>
        <mxCell id="MxtHqCWYifeLRSX94nUC-2" value="数学" style="rounded=1;whiteSpace=wrap;html=1;" vertex="1" parent="1">
          <mxGeometry x="160" y="220" width="70" height="20" as="geometry" />
        </mxCell>
        <mxCell id="MxtHqCWYifeLRSX94nUC-3" value="英语" style="rounded=1;whiteSpace=wrap;html=1;" vertex="1" parent="1">
          <mxGeometry x="160" y="430" width="70" height="20" as="geometry" />
        </mxCell>
        <mxCell id="MxtHqCWYifeLRSX94nUC-4" value="计算机思想" style="rounded=1;whiteSpace=wrap;html=1;" vertex="1" parent="1">
          <mxGeometry x="160" y="590" width="70" height="20" as="geometry" />
        </mxCell>
        <mxCell id="MxtHqCWYifeLRSX94nUC-5" value="数的概念" style="rounded=1;whiteSpace=wrap;html=1;" vertex="1" parent="1">
          <mxGeometry x="290" y="130" width="70" height="20" as="geometry" />
        </mxCell>
        <mxCell id="MxtHqCWYifeLRSX94nUC-6" value="数理逻辑" style="rounded=1;whiteSpace=wrap;html=1;" vertex="1" parent="1">
          <mxGeometry x="290" y="210" width="70" height="20" as="geometry" />
        </mxCell>
        <mxCell id="MxtHqCWYifeLRSX94nUC-7" value="算法" style="rounded=1;whiteSpace=wrap;html=1;" vertex="1" parent="1">
          <mxGeometry x="290" y="337.5" width="70" height="20" as="geometry" />
        </mxCell>
        <mxCell id="MxtHqCWYifeLRSX94nUC-9" value="数的产生" style="rounded=1;whiteSpace=wrap;html=1;" vertex="1" parent="1">
          <mxGeometry x="380" y="90" width="70" height="20" as="geometry" />
        </mxCell>
        <mxCell id="MxtHqCWYifeLRSX94nUC-10" value="应用场景" style="rounded=1;whiteSpace=wrap;html=1;" vertex="1" parent="1">
          <mxGeometry x="480" y="60" width="70" height="20" as="geometry" />
        </mxCell>
        <mxCell id="MxtHqCWYifeLRSX94nUC-11" value="数的范畴" style="rounded=1;whiteSpace=wrap;html=1;" vertex="1" parent="1">
          <mxGeometry x="380" y="160" width="70" height="20" as="geometry" />
        </mxCell>
        <mxCell id="MxtHqCWYifeLRSX94nUC-12" value="什么是数据" style="rounded=1;whiteSpace=wrap;html=1;" vertex="1" parent="1">
          <mxGeometry x="480" y="170" width="70" height="20" as="geometry" />
        </mxCell>
        <mxCell id="MxtHqCWYifeLRSX94nUC-13" value="数据类型" style="rounded=1;whiteSpace=wrap;html=1;" vertex="1" parent="1">
          <mxGeometry x="580" y="120" width="70" height="20" as="geometry" />
        </mxCell>
        <mxCell id="MxtHqCWYifeLRSX94nUC-14" value="数据结构" style="rounded=1;whiteSpace=wrap;html=1;" vertex="1" parent="1">
          <mxGeometry x="580" y="160" width="70" height="20" as="geometry" />
        </mxCell>
        <mxCell id="MxtHqCWYifeLRSX94nUC-15" value="符号" style="rounded=1;whiteSpace=wrap;html=1;" vertex="1" parent="1">
          <mxGeometry x="480" y="200" width="70" height="20" as="geometry" />
        </mxCell>
        <mxCell id="MxtHqCWYifeLRSX94nUC-16" value="标识符号" style="rounded=1;whiteSpace=wrap;html=1;" vertex="1" parent="1">
          <mxGeometry x="580" y="190" width="70" height="20" as="geometry" />
        </mxCell>
        <mxCell id="MxtHqCWYifeLRSX94nUC-17" value="符号的统一" style="rounded=1;whiteSpace=wrap;html=1;" vertex="1" parent="1">
          <mxGeometry x="580" y="220" width="70" height="20" as="geometry" />
        </mxCell>
        <mxCell id="MxtHqCWYifeLRSX94nUC-18" value="" style="edgeStyle=elbowEdgeStyle;elbow=horizontal;endArrow=classic;html=1;exitX=1;exitY=0.5;exitDx=0;exitDy=0;entryX=0;entryY=0.5;entryDx=0;entryDy=0;" edge="1" parent="1" source="MxtHqCWYifeLRSX94nUC-1" target="MxtHqCWYifeLRSX94nUC-2">
          <mxGeometry width="50" height="50" relative="1" as="geometry">
            <mxPoint x="120" y="420" as="sourcePoint" />
            <mxPoint x="170" y="370" as="targetPoint" />
          </mxGeometry>
        </mxCell>
        <mxCell id="MxtHqCWYifeLRSX94nUC-19" value="" style="edgeStyle=elbowEdgeStyle;elbow=horizontal;endArrow=classic;html=1;exitX=1;exitY=0.5;exitDx=0;exitDy=0;entryX=0;entryY=0.5;entryDx=0;entryDy=0;" edge="1" parent="1" source="MxtHqCWYifeLRSX94nUC-1" target="MxtHqCWYifeLRSX94nUC-4">
          <mxGeometry width="50" height="50" relative="1" as="geometry">
            <mxPoint x="130" y="420" as="sourcePoint" />
            <mxPoint x="170" y="240" as="targetPoint" />
          </mxGeometry>
        </mxCell>
        <mxCell id="MxtHqCWYifeLRSX94nUC-20" value="" style="edgeStyle=elbowEdgeStyle;elbow=horizontal;endArrow=classic;html=1;exitX=1;exitY=0.5;exitDx=0;exitDy=0;entryX=0;entryY=0.5;entryDx=0;entryDy=0;" edge="1" parent="1" source="MxtHqCWYifeLRSX94nUC-2" target="MxtHqCWYifeLRSX94nUC-5">
          <mxGeometry width="50" height="50" relative="1" as="geometry">
            <mxPoint x="140" y="430" as="sourcePoint" />
            <mxPoint x="180" y="250" as="targetPoint" />
          </mxGeometry>
        </mxCell>
        <mxCell id="MxtHqCWYifeLRSX94nUC-21" value="" style="edgeStyle=elbowEdgeStyle;elbow=horizontal;endArrow=classic;html=1;exitX=1;exitY=0.5;exitDx=0;exitDy=0;entryX=0;entryY=0.5;entryDx=0;entryDy=0;" edge="1" parent="1" source="MxtHqCWYifeLRSX94nUC-2" target="MxtHqCWYifeLRSX94nUC-7">
          <mxGeometry width="50" height="50" relative="1" as="geometry">
            <mxPoint x="150" y="440" as="sourcePoint" />
            <mxPoint x="290" y="390" as="targetPoint" />
          </mxGeometry>
        </mxCell>
        <mxCell id="MxtHqCWYifeLRSX94nUC-22" value="" style="edgeStyle=elbowEdgeStyle;elbow=horizontal;endArrow=classic;html=1;exitX=1;exitY=0.5;exitDx=0;exitDy=0;entryX=0;entryY=0.5;entryDx=0;entryDy=0;" edge="1" parent="1" source="MxtHqCWYifeLRSX94nUC-5" target="MxtHqCWYifeLRSX94nUC-9">
          <mxGeometry width="50" height="50" relative="1" as="geometry">
            <mxPoint x="160" y="450" as="sourcePoint" />
            <mxPoint x="200" y="270" as="targetPoint" />
          </mxGeometry>
        </mxCell>
        <mxCell id="MxtHqCWYifeLRSX94nUC-23" value="" style="edgeStyle=elbowEdgeStyle;elbow=horizontal;endArrow=classic;html=1;exitX=1;exitY=0.5;exitDx=0;exitDy=0;entryX=0;entryY=0.5;entryDx=0;entryDy=0;" edge="1" parent="1" source="MxtHqCWYifeLRSX94nUC-5" target="MxtHqCWYifeLRSX94nUC-11">
          <mxGeometry width="50" height="50" relative="1" as="geometry">
            <mxPoint x="170" y="460" as="sourcePoint" />
            <mxPoint x="210" y="280" as="targetPoint" />
          </mxGeometry>
        </mxCell>
        <mxCell id="MxtHqCWYifeLRSX94nUC-24" value="" style="edgeStyle=elbowEdgeStyle;elbow=horizontal;endArrow=classic;html=1;exitX=1;exitY=0.5;exitDx=0;exitDy=0;entryX=0;entryY=0.5;entryDx=0;entryDy=0;" edge="1" parent="1" source="MxtHqCWYifeLRSX94nUC-9" target="MxtHqCWYifeLRSX94nUC-10">
          <mxGeometry width="50" height="50" relative="1" as="geometry">
            <mxPoint x="180" y="470" as="sourcePoint" />
            <mxPoint x="220" y="290" as="targetPoint" />
          </mxGeometry>
        </mxCell>
        <mxCell id="MxtHqCWYifeLRSX94nUC-25" value="" style="edgeStyle=elbowEdgeStyle;elbow=horizontal;endArrow=classic;html=1;exitX=1;exitY=0.5;exitDx=0;exitDy=0;entryX=0;entryY=0.5;entryDx=0;entryDy=0;" edge="1" parent="1" source="MxtHqCWYifeLRSX94nUC-11" target="MxtHqCWYifeLRSX94nUC-15">
          <mxGeometry width="50" height="50" relative="1" as="geometry">
            <mxPoint x="190" y="480" as="sourcePoint" />
            <mxPoint x="230" y="300" as="targetPoint" />
          </mxGeometry>
        </mxCell>
        <mxCell id="MxtHqCWYifeLRSX94nUC-26" value="" style="edgeStyle=elbowEdgeStyle;elbow=horizontal;endArrow=classic;html=1;exitX=1;exitY=0.5;exitDx=0;exitDy=0;entryX=0;entryY=0.5;entryDx=0;entryDy=0;" edge="1" parent="1" source="MxtHqCWYifeLRSX94nUC-11" target="MxtHqCWYifeLRSX94nUC-12">
          <mxGeometry width="50" height="50" relative="1" as="geometry">
            <mxPoint x="200" y="490" as="sourcePoint" />
            <mxPoint x="240" y="310" as="targetPoint" />
          </mxGeometry>
        </mxCell>
        <mxCell id="MxtHqCWYifeLRSX94nUC-27" value="" style="edgeStyle=elbowEdgeStyle;elbow=horizontal;endArrow=classic;html=1;exitX=1;exitY=0.5;exitDx=0;exitDy=0;entryX=0;entryY=0.5;entryDx=0;entryDy=0;" edge="1" parent="1" source="MxtHqCWYifeLRSX94nUC-12" target="MxtHqCWYifeLRSX94nUC-13">
          <mxGeometry width="50" height="50" relative="1" as="geometry">
            <mxPoint x="210" y="500" as="sourcePoint" />
            <mxPoint x="250" y="320" as="targetPoint" />
          </mxGeometry>
        </mxCell>
        <mxCell id="MxtHqCWYifeLRSX94nUC-28" value="" style="edgeStyle=elbowEdgeStyle;elbow=horizontal;endArrow=classic;html=1;exitX=1;exitY=0.5;exitDx=0;exitDy=0;entryX=0;entryY=0.5;entryDx=0;entryDy=0;" edge="1" parent="1" source="MxtHqCWYifeLRSX94nUC-15" target="MxtHqCWYifeLRSX94nUC-17">
          <mxGeometry width="50" height="50" relative="1" as="geometry">
            <mxPoint x="220" y="510" as="sourcePoint" />
            <mxPoint x="260" y="330" as="targetPoint" />
          </mxGeometry>
        </mxCell>
        <mxCell id="MxtHqCWYifeLRSX94nUC-29" value="" style="edgeStyle=elbowEdgeStyle;elbow=horizontal;endArrow=classic;html=1;entryX=0;entryY=0.5;entryDx=0;entryDy=0;exitX=1;exitY=0.5;exitDx=0;exitDy=0;" edge="1" parent="1" source="MxtHqCWYifeLRSX94nUC-12" target="MxtHqCWYifeLRSX94nUC-14">
          <mxGeometry width="50" height="50" relative="1" as="geometry">
            <mxPoint x="550" y="150" as="sourcePoint" />
            <mxPoint x="270" y="340" as="targetPoint" />
          </mxGeometry>
        </mxCell>
        <mxCell id="MxtHqCWYifeLRSX94nUC-30" value="" style="edgeStyle=elbowEdgeStyle;elbow=horizontal;endArrow=classic;html=1;exitX=1;exitY=0.5;exitDx=0;exitDy=0;entryX=0;entryY=0.5;entryDx=0;entryDy=0;" edge="1" parent="1" source="MxtHqCWYifeLRSX94nUC-15" target="MxtHqCWYifeLRSX94nUC-16">
          <mxGeometry width="50" height="50" relative="1" as="geometry">
            <mxPoint x="240" y="530" as="sourcePoint" />
            <mxPoint x="280" y="350" as="targetPoint" />
          </mxGeometry>
        </mxCell>
        <mxCell id="MxtHqCWYifeLRSX94nUC-31" value="记录需求" style="rounded=1;whiteSpace=wrap;html=1;" vertex="1" parent="1">
          <mxGeometry x="480" y="100" width="70" height="20" as="geometry" />
        </mxCell>
        <mxCell id="MxtHqCWYifeLRSX94nUC-32" value="" style="edgeStyle=elbowEdgeStyle;elbow=horizontal;endArrow=classic;html=1;entryX=0;entryY=0.5;entryDx=0;entryDy=0;" edge="1" parent="1" target="MxtHqCWYifeLRSX94nUC-31">
          <mxGeometry width="50" height="50" relative="1" as="geometry">
            <mxPoint x="450" y="100" as="sourcePoint" />
            <mxPoint x="490" y="80" as="targetPoint" />
          </mxGeometry>
        </mxCell>
        <mxCell id="MxtHqCWYifeLRSX94nUC-33" value="数的计算" style="rounded=1;whiteSpace=wrap;html=1;" vertex="1" parent="1">
          <mxGeometry x="580" y="70" width="70" height="20" as="geometry" />
        </mxCell>
        <mxCell id="MxtHqCWYifeLRSX94nUC-34" value="" style="edgeStyle=elbowEdgeStyle;elbow=horizontal;endArrow=classic;html=1;exitX=1;exitY=0.5;exitDx=0;exitDy=0;entryX=0;entryY=0.5;entryDx=0;entryDy=0;" edge="1" parent="1" source="MxtHqCWYifeLRSX94nUC-31" target="MxtHqCWYifeLRSX94nUC-33">
          <mxGeometry width="50" height="50" relative="1" as="geometry">
            <mxPoint x="560" y="190" as="sourcePoint" />
            <mxPoint x="590" y="140" as="targetPoint" />
          </mxGeometry>
        </mxCell>
        <mxCell id="MxtHqCWYifeLRSX94nUC-36" value="计算的应用" style="rounded=1;whiteSpace=wrap;html=1;" vertex="1" parent="1">
          <mxGeometry x="680" y="70" width="70" height="20" as="geometry" />
        </mxCell>
        <mxCell id="MxtHqCWYifeLRSX94nUC-37" value="" style="edgeStyle=elbowEdgeStyle;elbow=horizontal;endArrow=classic;html=1;exitX=1;exitY=0.5;exitDx=0;exitDy=0;" edge="1" parent="1" source="MxtHqCWYifeLRSX94nUC-10">
          <mxGeometry width="50" height="50" relative="1" as="geometry">
            <mxPoint x="560" y="120" as="sourcePoint" />
            <mxPoint x="580" y="80" as="targetPoint" />
          </mxGeometry>
        </mxCell>
        <mxCell id="MxtHqCWYifeLRSX94nUC-38" value="" style="edgeStyle=elbowEdgeStyle;elbow=horizontal;endArrow=classic;html=1;exitX=1;exitY=0.5;exitDx=0;exitDy=0;entryX=0;entryY=0.5;entryDx=0;entryDy=0;" edge="1" parent="1" source="MxtHqCWYifeLRSX94nUC-33" target="MxtHqCWYifeLRSX94nUC-36">
          <mxGeometry width="50" height="50" relative="1" as="geometry">
            <mxPoint x="560" y="120" as="sourcePoint" />
            <mxPoint x="590" y="90" as="targetPoint" />
          </mxGeometry>
        </mxCell>
        <mxCell id="MxtHqCWYifeLRSX94nUC-39" value="" style="edgeStyle=elbowEdgeStyle;elbow=horizontal;endArrow=classic;html=1;exitX=0.5;exitY=0;exitDx=0;exitDy=0;entryX=0.5;entryY=0;entryDx=0;entryDy=0;" edge="1" parent="1" source="MxtHqCWYifeLRSX94nUC-36" target="MxtHqCWYifeLRSX94nUC-11">
          <mxGeometry width="50" height="50" relative="1" as="geometry">
            <mxPoint x="570" y="130" as="sourcePoint" />
            <mxPoint x="600" y="100" as="targetPoint" />
            <Array as="points">
              <mxPoint x="750" y="20" />
              <mxPoint x="560" y="20" />
              <mxPoint x="780" y="110" />
              <mxPoint x="715" y="130" />
            </Array>
          </mxGeometry>
        </mxCell>
        <mxCell id="MxtHqCWYifeLRSX94nUC-40" value="数学分支" style="rounded=1;whiteSpace=wrap;html=1;" vertex="1" parent="1">
          <mxGeometry x="680" y="160" width="70" height="20" as="geometry" />
        </mxCell>
        <mxCell id="MxtHqCWYifeLRSX94nUC-41" value="" style="edgeStyle=elbowEdgeStyle;elbow=horizontal;endArrow=classic;html=1;exitX=1;exitY=0.5;exitDx=0;exitDy=0;entryX=0;entryY=0.5;entryDx=0;entryDy=0;" edge="1" parent="1" source="MxtHqCWYifeLRSX94nUC-13" target="MxtHqCWYifeLRSX94nUC-40">
          <mxGeometry width="50" height="50" relative="1" as="geometry">
            <mxPoint x="560" y="190" as="sourcePoint" />
            <mxPoint x="590" y="140" as="targetPoint" />
          </mxGeometry>
        </mxCell>
        <mxCell id="MxtHqCWYifeLRSX94nUC-42" value="" style="edgeStyle=elbowEdgeStyle;elbow=horizontal;endArrow=classic;html=1;exitX=1;exitY=0.5;exitDx=0;exitDy=0;entryX=0;entryY=0.5;entryDx=0;entryDy=0;" edge="1" parent="1" source="MxtHqCWYifeLRSX94nUC-17" target="MxtHqCWYifeLRSX94nUC-40">
          <mxGeometry width="50" height="50" relative="1" as="geometry">
            <mxPoint x="660" y="140" as="sourcePoint" />
            <mxPoint x="690" y="180" as="targetPoint" />
          </mxGeometry>
        </mxCell>
        <mxCell id="MxtHqCWYifeLRSX94nUC-43" value="初等代数" style="rounded=1;whiteSpace=wrap;html=1;" vertex="1" parent="1">
          <mxGeometry x="780" y="110" width="70" height="20" as="geometry" />
        </mxCell>
        <mxCell id="MxtHqCWYifeLRSX94nUC-44" value="几何学" style="rounded=1;whiteSpace=wrap;html=1;" vertex="1" parent="1">
          <mxGeometry x="780" y="130" width="70" height="20" as="geometry" />
        </mxCell>
        <mxCell id="MxtHqCWYifeLRSX94nUC-45" value="函数及方程" style="rounded=1;whiteSpace=wrap;html=1;" vertex="1" parent="1">
          <mxGeometry x="780" y="150" width="70" height="20" as="geometry" />
        </mxCell>
        <mxCell id="MxtHqCWYifeLRSX94nUC-46" value="数论" style="rounded=1;whiteSpace=wrap;html=1;" vertex="1" parent="1">
          <mxGeometry x="780" y="190" width="70" height="20" as="geometry" />
        </mxCell>
        <mxCell id="MxtHqCWYifeLRSX94nUC-47" value="概率论" style="rounded=1;whiteSpace=wrap;html=1;" vertex="1" parent="1">
          <mxGeometry x="780" y="210" width="70" height="20" as="geometry" />
        </mxCell>
        <mxCell id="MxtHqCWYifeLRSX94nUC-48" value="统计学" style="rounded=1;whiteSpace=wrap;html=1;" vertex="1" parent="1">
          <mxGeometry x="780" y="230" width="70" height="20" as="geometry" />
        </mxCell>
        <mxCell id="MxtHqCWYifeLRSX94nUC-49" value="计算数学" style="rounded=1;whiteSpace=wrap;html=1;" vertex="1" parent="1">
          <mxGeometry x="780" y="170" width="70" height="20" as="geometry" />
        </mxCell>
        <mxCell id="MxtHqCWYifeLRSX94nUC-50" value="" style="edgeStyle=elbowEdgeStyle;elbow=horizontal;endArrow=classic;html=1;exitX=1;exitY=0.5;exitDx=0;exitDy=0;entryX=0;entryY=0.5;entryDx=0;entryDy=0;" edge="1" parent="1" source="MxtHqCWYifeLRSX94nUC-40" target="MxtHqCWYifeLRSX94nUC-43">
          <mxGeometry width="50" height="50" relative="1" as="geometry">
            <mxPoint x="560" y="190" as="sourcePoint" />
            <mxPoint x="590" y="140" as="targetPoint" />
          </mxGeometry>
        </mxCell>
        <mxCell id="MxtHqCWYifeLRSX94nUC-51" value="" style="edgeStyle=elbowEdgeStyle;elbow=horizontal;endArrow=classic;html=1;exitX=1;exitY=0.5;exitDx=0;exitDy=0;" edge="1" parent="1" source="MxtHqCWYifeLRSX94nUC-40">
          <mxGeometry width="50" height="50" relative="1" as="geometry">
            <mxPoint x="570" y="200" as="sourcePoint" />
            <mxPoint x="790" y="350" as="targetPoint" />
            <Array as="points">
              <mxPoint x="770" y="270" />
            </Array>
          </mxGeometry>
        </mxCell>
        <mxCell id="MxtHqCWYifeLRSX94nUC-52" value="" style="verticalLabelPosition=bottom;verticalAlign=top;html=1;shape=mxgraph.flowchart.parallel_mode;pointerEvents=1;rotation=90;" vertex="1" parent="1">
          <mxGeometry x="767.5" y="280" width="95" height="40" as="geometry" />
        </mxCell>
        <mxCell id="MxtHqCWYifeLRSX94nUC-53" value="模型论" style="rounded=1;whiteSpace=wrap;html=1;" vertex="1" parent="1">
          <mxGeometry x="390" y="190" width="70" height="20" as="geometry" />
        </mxCell>
        <mxCell id="MxtHqCWYifeLRSX94nUC-54" value="递归论" style="rounded=1;whiteSpace=wrap;html=1;" vertex="1" parent="1">
          <mxGeometry x="390" y="210" width="70" height="20" as="geometry" />
        </mxCell>
        <mxCell id="MxtHqCWYifeLRSX94nUC-55" value="证明论" style="rounded=1;whiteSpace=wrap;html=1;" vertex="1" parent="1">
          <mxGeometry x="390" y="230" width="70" height="20" as="geometry" />
        </mxCell>
        <mxCell id="MxtHqCWYifeLRSX94nUC-56" value="演绎逻辑学" style="rounded=1;whiteSpace=wrap;html=1;" vertex="1" parent="1">
          <mxGeometry x="390" y="250" width="70" height="20" as="geometry" />
        </mxCell>
        <mxCell id="MxtHqCWYifeLRSX94nUC-57" value="" style="edgeStyle=elbowEdgeStyle;elbow=horizontal;endArrow=classic;html=1;exitX=1;exitY=0.5;exitDx=0;exitDy=0;entryX=0;entryY=0.5;entryDx=0;entryDy=0;" edge="1" parent="1" source="MxtHqCWYifeLRSX94nUC-6" target="MxtHqCWYifeLRSX94nUC-53">
          <mxGeometry width="50" height="50" relative="1" as="geometry">
            <mxPoint x="370" y="150" as="sourcePoint" />
            <mxPoint x="390" y="110" as="targetPoint" />
          </mxGeometry>
        </mxCell>
        <mxCell id="MxtHqCWYifeLRSX94nUC-58" value="" style="edgeStyle=elbowEdgeStyle;elbow=horizontal;endArrow=classic;html=1;exitX=1;exitY=0.5;exitDx=0;exitDy=0;entryX=0;entryY=0.5;entryDx=0;entryDy=0;" edge="1" parent="1" source="MxtHqCWYifeLRSX94nUC-6" target="MxtHqCWYifeLRSX94nUC-56">
          <mxGeometry width="50" height="50" relative="1" as="geometry">
            <mxPoint x="380" y="160" as="sourcePoint" />
            <mxPoint x="400" y="120" as="targetPoint" />
          </mxGeometry>
        </mxCell>
        <mxCell id="2" value="数学是上帝用来&lt;br&gt;书写宇宙的文字和符号" style="text;html=1;align=center;verticalAlign=middle;resizable=0;points=[];autosize=1;" vertex="1" parent="1">
          <mxGeometry x="130" y="250" width="140" height="30" as="geometry" />
        </mxCell>
        <mxCell id="MxtHqCWYifeLRSX94nUC-59" value="基本算法" style="rounded=1;whiteSpace=wrap;html=1;" vertex="1" parent="1">
          <mxGeometry x="394" y="292.5" width="70" height="20" as="geometry" />
        </mxCell>
        <mxCell id="MxtHqCWYifeLRSX94nUC-60" value="图论" style="rounded=1;whiteSpace=wrap;html=1;" vertex="1" parent="1">
          <mxGeometry x="506" y="330" width="70" height="20" as="geometry" />
        </mxCell>
        <mxCell id="MxtHqCWYifeLRSX94nUC-61" value="几何" style="rounded=1;whiteSpace=wrap;html=1;" vertex="1" parent="1">
          <mxGeometry x="506" y="290" width="70" height="20" as="geometry" />
        </mxCell>
        <mxCell id="MxtHqCWYifeLRSX94nUC-62" value="数论" style="rounded=1;whiteSpace=wrap;html=1;" vertex="1" parent="1">
          <mxGeometry x="506" y="310" width="70" height="20" as="geometry" />
        </mxCell>
        <mxCell id="MxtHqCWYifeLRSX94nUC-63" value="代数" style="rounded=1;whiteSpace=wrap;html=1;" vertex="1" parent="1">
          <mxGeometry x="506" y="270" width="70" height="20" as="geometry" />
        </mxCell>
        <mxCell id="MxtHqCWYifeLRSX94nUC-64" value="数据结构" style="rounded=1;whiteSpace=wrap;html=1;" vertex="1" parent="1">
          <mxGeometry x="394" y="312.5" width="70" height="20" as="geometry" />
        </mxCell>
        <mxCell id="MxtHqCWYifeLRSX94nUC-65" value="动态规划" style="rounded=1;whiteSpace=wrap;html=1;" vertex="1" parent="1">
          <mxGeometry x="394" y="332.5" width="70" height="20" as="geometry" />
        </mxCell>
        <mxCell id="MxtHqCWYifeLRSX94nUC-66" value="数值分析" style="rounded=1;whiteSpace=wrap;html=1;" vertex="1" parent="1">
          <mxGeometry x="394" y="352.5" width="70" height="20" as="geometry" />
        </mxCell>
        <mxCell id="MxtHqCWYifeLRSX94nUC-67" value="" style="edgeStyle=elbowEdgeStyle;elbow=horizontal;endArrow=classic;html=1;exitX=1;exitY=0.5;exitDx=0;exitDy=0;entryX=0;entryY=0.5;entryDx=0;entryDy=0;" edge="1" parent="1" source="MxtHqCWYifeLRSX94nUC-7" target="MxtHqCWYifeLRSX94nUC-59">
          <mxGeometry width="50" height="50" relative="1" as="geometry">
            <mxPoint x="364" y="402.5" as="sourcePoint" />
            <mxPoint x="404" y="282.5" as="targetPoint" />
          </mxGeometry>
        </mxCell>
        <mxCell id="MxtHqCWYifeLRSX94nUC-68" value="" style="edgeStyle=elbowEdgeStyle;elbow=horizontal;endArrow=classic;html=1;exitX=1;exitY=0.5;exitDx=0;exitDy=0;entryX=0;entryY=0.5;entryDx=0;entryDy=0;" edge="1" parent="1" source="MxtHqCWYifeLRSX94nUC-59" target="MxtHqCWYifeLRSX94nUC-63">
          <mxGeometry width="50" height="50" relative="1" as="geometry">
            <mxPoint x="480" y="375" as="sourcePoint" />
            <mxPoint x="426" y="310" as="targetPoint" />
          </mxGeometry>
        </mxCell>
        <mxCell id="MxtHqCWYifeLRSX94nUC-69" value="" style="edgeStyle=elbowEdgeStyle;elbow=horizontal;endArrow=classic;html=1;exitX=1;exitY=0.5;exitDx=0;exitDy=0;entryX=0;entryY=0.5;entryDx=0;entryDy=0;" edge="1" parent="1" source="MxtHqCWYifeLRSX94nUC-59" target="MxtHqCWYifeLRSX94nUC-60">
          <mxGeometry width="50" height="50" relative="1" as="geometry">
            <mxPoint x="480" y="375" as="sourcePoint" />
            <mxPoint x="436" y="320" as="targetPoint" />
          </mxGeometry>
        </mxCell>
        <mxCell id="MxtHqCWYifeLRSX94nUC-70" value="" style="edgeStyle=elbowEdgeStyle;elbow=horizontal;endArrow=classic;html=1;entryX=0;entryY=0.5;entryDx=0;entryDy=0;exitX=1;exitY=0.5;exitDx=0;exitDy=0;" edge="1" parent="1" source="MxtHqCWYifeLRSX94nUC-7" target="MxtHqCWYifeLRSX94nUC-66">
          <mxGeometry width="50" height="50" relative="1" as="geometry">
            <mxPoint x="364" y="402.5" as="sourcePoint" />
            <mxPoint x="434" y="312.5" as="targetPoint" />
          </mxGeometry>
        </mxCell>
        <mxCell id="MxtHqCWYifeLRSX94nUC-71" value="&lt;b&gt;&lt;font color=&quot;#ffffff&quot;&gt;算法模型&lt;/font&gt;&lt;/b&gt;" style="rounded=1;whiteSpace=wrap;html=1;fillColor=#000000;" vertex="1" parent="1">
          <mxGeometry x="310" y="535" width="70" height="130" as="geometry" />
        </mxCell>
        <mxCell id="MxtHqCWYifeLRSX94nUC-72" value="&lt;b&gt;输入&lt;/b&gt;" style="strokeWidth=2;html=1;shape=mxgraph.flowchart.sequential_data;whiteSpace=wrap;" vertex="1" parent="1">
          <mxGeometry x="250" y="520" width="50" height="45" as="geometry" />
        </mxCell>
        <mxCell id="MxtHqCWYifeLRSX94nUC-76" value="" style="group" vertex="1" connectable="0" parent="1">
          <mxGeometry x="390" y="615" width="54" height="50" as="geometry" />
        </mxCell>
        <mxCell id="MxtHqCWYifeLRSX94nUC-74" value="" style="strokeWidth=2;html=1;shape=mxgraph.flowchart.sequential_data;whiteSpace=wrap;rotation=-180;" vertex="1" parent="MxtHqCWYifeLRSX94nUC-76">
          <mxGeometry width="54" height="50" as="geometry" />
        </mxCell>
        <mxCell id="MxtHqCWYifeLRSX94nUC-75" value="&lt;b&gt;输出&lt;/b&gt;" style="text;html=1;align=center;verticalAlign=middle;resizable=0;points=[];autosize=1;" vertex="1" parent="MxtHqCWYifeLRSX94nUC-76">
          <mxGeometry x="7" y="15" width="40" height="20" as="geometry" />
        </mxCell>
      </root>
    </mxGraphModel>
  </diagram>
</mxfile>
